# xmcd
#
# Track frame offsets: 
#        150
#        23543
#        41423
#        63768
#        78260
#        103911
#        125138
#        154906
#
# Disc length: 2289 seconds
#
# Revision: 1
# Processed by: cddbd v1.5.2PL0 Copyright (c) Steve Scherf et al.
# Submitted via: ExactAudioCopy v0.99pb5
#
DISCID=5d08ef08
DTITLE=Karma To Burn - Appalachian Incantation
DYEAR=2010
DGENRE=Stoner Rock
TTITLE0=Forty-Four
TTITLE1=Forty-Two
TTITLE2=Forty-One
TTITLE3=Forty-Six
TTITLE4=Waiting On The Western World
TTITLE5=Forty-Three
TTITLE6=Forty-Five
TTITLE7=Twenty-Four
EXTD=YEAR: 2010
EXTT0=
EXTT1=
EXTT2=
EXTT3=
EXTT4=
EXTT5=
EXTT6=
EXTT7=
PLAYORDER=
